<?xml version="1.0" encoding="UTF-8"?>
<!DOCTYPE svg PUBLIC "-//W3C//DTD SVG 1.1//EN" "http://www.w3.org/Graphics/SVG/1.1/DTD/svg11.dtd">
<!-- Creator: CorelDRAW X5 -->
<svg xmlns="http://www.w3.org/2000/svg" xml:space="preserve" width="179.087mm" height="169.631mm" style="shape-rendering:geometricPrecision; text-rendering:geometricPrecision; image-rendering:optimizeQuality; fill-rule:evenodd; clip-rule:evenodd"
viewBox="0 0 16706 15824"
 xmlns:xlink="http://www.w3.org/1999/xlink">
 <defs>
  <style type="text/css">
   <![CDATA[
    .fil0 {fill:#2B2A29}
    .fil1 {fill:#2B2A29;fill-rule:nonzero}
   ]]>
  </style>
 </defs>
 <g id="Layer_x0020_1">
  <metadata id="CorelCorpID_0Corel-Layer"/>
  <g id="_399114216">
   <path class="fil0" d="M14065 3577c-109,147 -197,555 68,911 374,503 832,545 1077,416 245,-129 406,-458 32,-1090 -259,-438 -596,-516 -773,-485 -167,29 -106,88 -195,-100 -50,-104 -96,-183 -192,-125 -90,55 -37,163 18,274 71,142 55,76 -35,198zm1109 498c407,723 -384,996 -823,387 -258,-357 -148,-359 213,-642 272,-213 365,-180 609,255z"/>
   <path class="fil0" d="M12526 1582c-679,169 -666,537 -641,736 28,221 -129,163 -155,82 -126,-385 -115,-98 -482,-405 -231,-193 -565,-1041 -376,-1290 162,-199 340,-193 488,89 154,294 296,596 349,918 48,290 65,182 173,30 51,-72 166,-146 290,-205 244,-118 517,-114 517,-207 1,-134 124,-235 241,-257 341,-64 452,246 423,408 -50,282 -431,397 -569,192 -84,-125 -18,-150 -257,-91zm-1406 -836c-383,96 102,1266 423,1220 157,-23 -343,-1240 -423,-1220z"/>
   <path class="fil0" d="M8 9300c-54,242 173,365 649,161 476,-203 1065,-750 1284,-1101 220,-351 631,-472 321,-822 -310,-350 -483,-996 -483,-996 0,0 -84,-70 -143,-10 -40,39 55,317 122,510 62,177 96,207 -7,384 -318,545 -1644,1434 -1743,1873zm1841 -1224c187,220 -1360,1548 -1646,1304 -93,-79 -77,-179 1327,-1379 202,-172 248,-8 319,75z"/>
   <path class="fil0" d="M15796 8111c-7,152 119,195 144,9 24,-175 27,-375 24,-553 -2,-116 7,-4 205,14 109,10 251,-20 392,-169 440,-465 -249,-394 -389,-295 -342,241 -206,225 -414,-119 -83,-137 -355,-274 -464,-217 -115,61 84,595 336,700 173,72 202,-43 197,90 -7,178 -23,360 -31,541z"/>
   <path class="fil0" d="M15316 11302c54,241 309,237 337,45 25,-174 -18,-230 -130,-236 -121,-7 -237,58 -207,191z"/>
   <path class="fil0" d="M8086 14328c-19,-219 162,-183 164,-25 4,384 158,181 395,277 418,170 465,842 200,1120 -195,204 -568,143 -784,-76 -350,-354 -253,-791 -7,-932 139,-79 55,-98 32,-364z"/>
   <path class="fil0" d="M1809 10852c-102,-42 -291,-55 -396,348 -149,570 -174,754 -144,903 30,149 89,317 461,15 372,-303 610,-843 610,-957 0,-114 -109,-288 -288,-238 -193,54 -121,-19 -243,-70z"/>
   <path class="fil0" d="M4081 14368c15,40 33,74 58,104 -162,-5 -284,44 -153,260 190,290 1178,387 1106,135 -8,-27 -26,-55 -53,-82 49,-13 91,-44 132,-102 74,-105 -128,-336 -459,-497 -317,-155 -807,-276 -630,182zm176 247c219,43 613,144 623,228 11,88 -425,25 -644,-75 -127,-58 -260,-209 21,-153zm287 -97c202,60 389,205 462,101 70,-99 -646,-582 -791,-371 -95,138 237,243 330,270z"/>
   <path class="fil0" d="M4626 1167c129,374 233,674 337,869 274,513 343,162 332,-210 -11,-395 -24,-743 -34,-961 -18,-403 -213,-458 -213,35 0,50 -1,218 9,349 40,489 44,596 -131,91 -58,-168 -131,-343 -196,-469 -114,-219 -225,-57 -103,297z"/>
   <path class="fil0" d="M8903 681c-98,416 -397,548 -724,480 -684,-142 -619,-847 -160,-1101 354,-196 1005,108 884,621zm-587 -237c110,4 168,175 -28,148 -69,-10 -71,-16 -94,48 -86,240 -203,83 -159,-25 13,-33 12,-62 -52,-75 -131,-26 -129,-201 -3,-165 155,44 68,-14 140,-141 28,-49 104,-57 122,-4 32,90 -79,209 72,215z"/>
   <path class="fil1" d="M5556 8604c-33,25 -70,42 -110,51 -40,9 -80,10 -121,2 -41,-8 -79,-24 -112,-48 -34,-23 -61,-54 -82,-90 -10,-17 -22,-30 -37,-38 -16,-9 -32,-14 -50,-14 -17,0 -34,5 -50,14 -23,15 -39,35 -46,60 -7,26 -4,51 8,77 36,61 83,112 140,152 56,41 119,68 189,82 70,14 139,12 206,-3 68,-16 131,-45 187,-87 57,-43 102,-95 134,-156 33,-60 53,-127 59,-197 5,-71 -5,-139 -29,-204 -24,-65 -60,-123 -109,-174l-500 -516c0,0 0,0 0,0 -27,-29 -47,-61 -60,-97 -13,-36 -18,-75 -15,-116 3,-40 14,-76 32,-110 18,-34 43,-62 74,-86 32,-23 67,-40 105,-48 38,-9 77,-9 117,-2 40,8 75,23 106,46 32,22 58,51 78,85 9,16 20,28 35,37 15,9 31,13 49,14 17,1 34,-4 50,-13 17,-10 30,-22 38,-37 9,-16 14,-32 14,-50 0,-17 -5,-34 -14,-50 -35,-60 -80,-109 -134,-148 -55,-39 -115,-66 -181,-80 -68,-14 -135,-13 -201,3 -66,16 -126,44 -180,85 -55,41 -99,92 -131,151 -32,59 -51,124 -56,193 -6,68 3,133 26,197 23,63 58,119 105,169 0,0 0,0 0,0l500 512c0,0 0,0 0,0 30,30 52,65 65,104 14,40 19,80 16,121 -3,43 -15,82 -34,118 -20,36 -47,66 -81,92zm619 -984l156 0 0 831c1,76 19,144 55,205 36,61 85,110 146,146 61,36 129,54 205,55 27,-1 49,-9 67,-27 18,-17 27,-40 27,-67 -1,-27 -9,-49 -27,-67 -17,-18 -40,-27 -67,-27 -41,-1 -78,-10 -111,-30 -33,-19 -59,-45 -78,-78 -19,-33 -29,-70 -30,-111l0 -831 219 0c27,-1 49,-10 67,-27 18,-17 27,-40 27,-67 -1,-27 -9,-49 -27,-67 -17,-18 -40,-27 -67,-27l-219 0 0 -544c-1,-27 -9,-49 -27,-67 -17,-18 -40,-27 -67,-27 -27,1 -49,9 -67,27 -18,17 -27,40 -27,67l0 544 -156 0c-27,1 -49,9 -67,27 -18,17 -27,40 -27,67 1,27 9,49 27,67 17,17 40,27 67,27l0 0zm1250 412c-76,1 -144,19 -205,55 -61,36 -110,85 -146,146 -36,61 -54,129 -55,205 1,76 19,144 55,205 36,61 85,110 146,146 61,36 129,54 205,55l312 0c26,-1 48,-9 66,-27 18,-17 27,-40 28,-67l0 -931c-1,-55 -10,-106 -31,-154 -20,-48 -48,-90 -85,-127 -37,-37 -80,-66 -131,-87 -51,-21 -102,-31 -154,-31 -53,0 -103,10 -152,30 -48,20 -92,49 -131,88 -12,12 -21,26 -25,41 -4,16 -4,31 0,47 4,16 13,30 25,43 13,12 27,21 43,25 16,4 32,4 48,0 16,-4 30,-12 43,-25 31,-31 66,-51 107,-58 41,-8 82,-4 124,11 40,18 71,44 95,79 24,34 36,74 36,118l0 212 -219 0zm-219 406c1,-41 10,-78 30,-111 19,-33 45,-59 78,-78 33,-19 70,-29 111,-30l219 0 0 437 -219 0c-41,-1 -78,-10 -111,-30 -33,-19 -59,-45 -78,-78 -19,-33 -29,-70 -30,-111zm1131 419c26,-1 47,-9 66,-27 18,-17 27,-40 28,-67l0 -1144 219 0c40,1 77,10 109,30 33,19 59,45 79,78 20,33 30,70 30,111l0 925c1,27 9,49 27,67 17,18 40,27 67,27 26,-1 48,-9 66,-27 18,-17 27,-40 28,-67l0 -925c-1,-57 -11,-109 -32,-158 -21,-49 -51,-92 -87,-129 -37,-37 -81,-66 -129,-87 -49,-21 -102,-31 -157,-32l-312 0c-27,1 -49,9 -67,27 -18,17 -27,40 -27,67l0 1237c1,27 9,49 27,67 17,18 40,27 67,27zm1225 -1687c23,-1 44,-6 63,-17 19,-11 34,-26 45,-45 11,-19 17,-40 17,-63 -1,-23 -6,-44 -17,-63 -11,-19 -26,-34 -45,-45 -19,-11 -40,-17 -63,-17 -23,0 -44,6 -63,17 -19,11 -34,26 -45,45 -11,19 -17,40 -17,63 1,23 6,44 17,63 11,19 26,34 45,45 19,11 40,17 63,17zm94 1593l0 -1250c-1,-27 -9,-49 -27,-67 -17,-18 -40,-27 -67,-27 -26,1 -47,9 -66,27 -18,17 -27,40 -28,67l0 1250c1,27 10,49 28,67 18,18 40,27 66,27 27,-1 49,-9 67,-27 18,-17 27,-40 27,-67zm850 -147c-23,20 -49,35 -78,44 -28,9 -57,11 -88,6 -31,-5 -59,-16 -83,-32 -24,-16 -45,-38 -60,-65 -9,-15 -20,-26 -34,-34 -15,-8 -30,-12 -47,-12 -16,0 -32,4 -47,12 -15,9 -26,20 -34,34 -8,15 -12,30 -13,47 0,16 4,32 12,47 30,52 69,94 117,127 48,33 102,54 161,64 58,8 115,3 170,-14 55,-17 105,-46 149,-86 44,-40 77,-86 99,-140 22,-53 30,-110 26,-170 -4,-60 -19,-115 -47,-166 -28,-51 -66,-93 -115,-128 0,0 0,0 0,0l-291 -203c-23,-16 -43,-36 -57,-61 -15,-24 -22,-51 -25,-80 -2,-29 3,-56 14,-82 10,-26 26,-48 46,-68 22,-20 47,-34 73,-42 27,-8 55,-9 83,-5 29,5 54,15 78,30 23,15 42,35 57,60 9,15 20,26 34,34 15,8 30,12 47,12 16,0 32,-4 47,-12 15,-9 26,-20 34,-34 8,-15 12,-30 13,-47 0,-16 -4,-32 -12,-47 -29,-51 -67,-91 -113,-123 -47,-31 -99,-52 -156,-61 -57,-8 -112,-3 -165,13 -54,17 -102,45 -144,84 -42,38 -74,83 -95,135 -21,52 -30,107 -27,165 5,57 21,109 48,158 27,48 65,90 111,123l291 206c0,0 0,0 0,0 25,17 45,39 60,65 15,26 23,54 24,85 3,30 -1,59 -12,86 -11,28 -28,52 -50,73zm778 228c24,12 48,15 72,8 24,-6 42,-21 56,-43 9,-15 14,-31 14,-47 0,-16 -4,-32 -12,-46 -8,-14 -20,-26 -36,-34 -24,-15 -43,-33 -57,-57 -14,-23 -21,-49 -21,-78l0 -1659c-1,-27 -9,-49 -27,-67 -17,-18 -40,-27 -67,-27 -26,1 -47,9 -66,27 -18,17 -27,40 -28,67l0 1659c1,62 17,119 47,171 31,52 72,94 124,126zm744 -812c-76,1 -144,19 -205,55 -61,36 -110,85 -146,146 -36,61 -54,129 -55,205 1,76 19,144 55,205 36,61 85,110 146,146 61,36 129,54 205,55l312 0c26,-1 48,-9 66,-27 18,-17 27,-40 28,-67l0 -931c-1,-55 -10,-106 -31,-154 -20,-48 -48,-90 -85,-127 -37,-37 -80,-66 -131,-87 -51,-21 -102,-31 -154,-31 -53,0 -103,10 -152,30 -48,20 -92,49 -131,88 -12,12 -21,26 -25,41 -4,16 -4,31 0,47 4,16 13,30 25,43 13,12 27,21 43,25 16,4 32,4 48,0 16,-4 30,-12 43,-25 31,-31 66,-51 107,-58 41,-8 82,-4 124,11 40,18 71,44 95,79 24,34 36,74 36,118l0 212 -219 0zm-219 406c1,-41 10,-78 30,-111 19,-33 45,-59 78,-78 33,-19 70,-29 111,-30l219 0 0 437 -219 0c-41,-1 -78,-10 -111,-30 -33,-19 -59,-45 -78,-78 -19,-33 -29,-70 -30,-111z"/>
   <path class="fil0" d="M12183 14628c107,-16 216,-104 310,-193 62,-59 288,-292 376,-447 72,-127 -17,-328 -229,-205 -143,83 -480,335 -630,552 -98,142 -14,322 173,294zm377 -1659c406,158 927,480 1073,968 110,368 182,304 283,-16 97,-308 -45,-781 -327,-1000 -202,-176 -719,-322 -1033,-180 -281,127 -139,173 4,229zm1003 1289c79,-489 -761,-1056 -1111,-1145 -319,-81 -181,301 -81,476 33,58 89,125 140,93 101,-62 121,-98 202,-102 174,-9 387,186 343,358 -8,32 -26,63 -50,116 -31,69 -30,101 23,162 56,64 125,111 200,144 185,82 306,75 335,-102zm346 -1260c301,337 210,1225 -177,1464 -323,200 -568,43 -751,-87 -116,-83 -90,-97 -198,-1 -181,160 -531,507 -775,405 -472,-198 -52,-617 168,-838 75,-75 116,-92 69,-181 -136,-257 -217,-515 -167,-717 185,-743 1382,-647 1831,-46z"/>
   <path class="fil0" d="M1265 3785c-25,48 -37,123 50,208 87,86 264,114 319,54 55,-60 70,-108 -6,-200 -76,-91 -263,-241 -363,-63zm766 825c-6,-50 -5,-103 2,-151 30,-188 187,-224 255,-32 153,435 -221,464 -257,183zm721 -43c-72,16 -219,30 -296,-104 -236,-413 12,-494 233,-293 110,100 245,346 63,397zm432 -473c-68,60 -159,132 -314,-19 -155,-151 -321,-392 -269,-549 17,-52 164,-211 341,-307 217,-117 276,67 100,131 -159,58 -338,159 -147,283 141,91 425,325 288,461zm-1762 186c-201,138 0,212 78,212 78,0 45,60 45,60 -40,300 188,220 264,67 59,-118 105,-236 18,-351 -81,-107 -310,-52 -404,12zm691 -1051c149,93 346,249 417,197 71,-52 93,-186 -41,-376 -124,-176 -309,-294 -445,-136 -84,98 -39,247 69,314zm139 307c-37,33 -138,115 -28,279 110,164 210,119 238,97 28,-22 67,-58 15,-212 -52,-154 -140,-240 -225,-164zm-772 -79c63,127 408,233 516,168 107,-65 103,-181 10,-258 -76,-63 -239,-236 -376,-226 -123,9 -201,214 -150,317zm349 363c-73,65 -67,180 -19,236 48,56 113,173 227,145 113,-28 160,-95 138,-182 -22,-87 -180,-318 -346,-199z"/>
  </g>
 </g>
</svg>
